<svg width="3204" height="287" viewBox="0 0 3204 287" fill="none" xmlns="http://www.w3.org/2000/svg">
<mask id="mask0_3228_9330" style="mask-type:luminance" maskUnits="userSpaceOnUse" x="1001" y="169" width="169" height="85">
<path d="M1001.18 169.301H1169.61V253.402H1001.18V169.301Z" fill="white"/>
</mask>
<g mask="url(#mask0_3228_9330)">
<path d="M1108.73 253.293H1015.39C1015.39 253.293 1001.39 253.293 1001.39 234.629C1001.39 225.297 1001.39 206.629 1006.06 201.965C1010.73 197.297 1043.39 169.301 1057.39 169.301H1085.39C1099.39 169.301 1132.06 201.965 1132.06 201.965L1150.72 206.629C1150.72 206.629 1164.72 211.297 1164.72 220.629V234.629C1164.72 234.629 1169.39 236.207 1169.39 243.762C1169.39 253.293 1160.06 253.293 1160.06 253.293H1108.73Z" fill="#DD2E44"/>
</g>
<path d="M1076.06 178.633H1085.39C1094.73 178.633 1122.72 206.629 1122.72 206.629C1122.72 206.629 1099.41 205.402 1076.06 204.211V178.633ZM1029.39 192.633C1034.06 187.965 1052.73 178.633 1062.06 178.633H1066.73V203.734C1048.01 202.781 1031.34 201.965 1029.39 201.965C1024.73 201.965 1024.73 197.297 1029.39 192.633Z" fill="#BBDDF5"/>
<mask id="mask1_3228_9330" style="mask-type:luminance" maskUnits="userSpaceOnUse" x="1104" y="229" width="38" height="39">
<path d="M1104 229.402H1142V267.292H1104V229.402Z" fill="white"/>
</mask>
<g mask="url(#mask1_3228_9330)">
<path d="M1104.06 248.629C1104.06 249.238 1104.09 249.848 1104.15 250.457C1104.21 251.066 1104.3 251.668 1104.42 252.27C1104.54 252.867 1104.68 253.461 1104.86 254.047C1105.04 254.629 1105.25 255.207 1105.48 255.77C1105.71 256.336 1105.97 256.887 1106.26 257.426C1106.55 257.965 1106.86 258.488 1107.2 258.996C1107.54 259.504 1107.91 259.996 1108.3 260.469C1108.68 260.941 1109.09 261.395 1109.53 261.824C1109.96 262.258 1110.41 262.668 1110.88 263.055C1111.36 263.441 1111.85 263.809 1112.36 264.145C1112.86 264.484 1113.39 264.801 1113.93 265.09C1114.46 265.375 1115.02 265.637 1115.58 265.871C1116.14 266.105 1116.72 266.313 1117.3 266.488C1117.89 266.664 1118.48 266.813 1119.08 266.934C1119.68 267.051 1120.29 267.141 1120.89 267.203C1121.5 267.262 1122.11 267.293 1122.72 267.293C1123.34 267.293 1123.95 267.262 1124.55 267.203C1125.16 267.141 1125.77 267.051 1126.37 266.934C1126.96 266.813 1127.56 266.664 1128.14 266.488C1128.73 266.313 1129.3 266.105 1129.87 265.871C1130.43 265.637 1130.98 265.375 1131.52 265.09C1132.06 264.801 1132.59 264.484 1133.09 264.145C1133.6 263.809 1134.09 263.441 1134.57 263.055C1135.04 262.668 1135.49 262.258 1135.92 261.824C1136.36 261.395 1136.77 260.941 1137.15 260.469C1137.54 259.996 1137.91 259.504 1138.25 258.996C1138.59 258.488 1138.9 257.965 1139.19 257.426C1139.48 256.887 1139.73 256.336 1139.97 255.77C1140.2 255.207 1140.41 254.629 1140.59 254.047C1140.77 253.461 1140.91 252.867 1141.03 252.27C1141.15 251.668 1141.24 251.066 1141.3 250.457C1141.36 249.848 1141.39 249.238 1141.39 248.629C1141.39 248.016 1141.36 247.406 1141.3 246.797C1141.24 246.188 1141.15 245.586 1141.03 244.984C1140.91 244.387 1140.77 243.793 1140.59 243.207C1140.41 242.625 1140.2 242.051 1139.97 241.484C1139.73 240.918 1139.48 240.367 1139.19 239.828C1138.9 239.289 1138.59 238.766 1138.25 238.258C1137.91 237.75 1137.54 237.258 1137.15 236.785C1136.77 236.313 1136.36 235.859 1135.92 235.43C1135.49 234.996 1135.04 234.586 1134.57 234.199C1134.09 233.813 1133.6 233.449 1133.09 233.109C1132.59 232.77 1132.06 232.453 1131.52 232.164C1130.98 231.879 1130.43 231.617 1129.87 231.383C1129.3 231.148 1128.73 230.941 1128.14 230.766C1127.56 230.59 1126.96 230.441 1126.37 230.32C1125.77 230.203 1125.16 230.113 1124.55 230.051C1123.95 229.992 1123.34 229.961 1122.72 229.961C1122.11 229.961 1121.5 229.992 1120.89 230.051C1120.29 230.113 1119.68 230.203 1119.08 230.32C1118.48 230.441 1117.89 230.59 1117.3 230.766C1116.72 230.941 1116.14 231.148 1115.58 231.383C1115.02 231.617 1114.46 231.879 1113.93 232.164C1113.39 232.453 1112.86 232.77 1112.36 233.109C1111.85 233.449 1111.36 233.813 1110.88 234.199C1110.41 234.586 1109.96 234.996 1109.53 235.43C1109.09 235.859 1108.68 236.313 1108.3 236.785C1107.91 237.258 1107.54 237.75 1107.2 238.258C1106.86 238.766 1106.55 239.289 1106.26 239.828C1105.97 240.367 1105.71 240.918 1105.48 241.484C1105.25 242.051 1105.04 242.625 1104.86 243.207C1104.68 243.793 1104.54 244.387 1104.42 244.984C1104.3 245.586 1104.21 246.188 1104.15 246.797C1104.09 247.406 1104.06 248.016 1104.06 248.629Z" fill="#292F33"/>
</g>
<path d="M1113.39 248.629C1113.39 249.238 1113.45 249.848 1113.57 250.449C1113.69 251.047 1113.87 251.633 1114.1 252.199C1114.34 252.766 1114.62 253.301 1114.96 253.812C1115.3 254.32 1115.69 254.793 1116.12 255.227C1116.56 255.66 1117.03 256.047 1117.54 256.387C1118.05 256.727 1118.59 257.016 1119.15 257.25C1119.72 257.484 1120.3 257.66 1120.9 257.781C1121.5 257.898 1122.11 257.961 1122.72 257.961C1123.34 257.961 1123.95 257.898 1124.55 257.781C1125.14 257.66 1125.73 257.484 1126.3 257.25C1126.86 257.016 1127.4 256.727 1127.91 256.387C1128.42 256.047 1128.89 255.66 1129.32 255.227C1129.76 254.793 1130.14 254.32 1130.48 253.812C1130.82 253.301 1131.11 252.766 1131.35 252.199C1131.58 251.633 1131.76 251.047 1131.88 250.449C1132 249.848 1132.06 249.238 1132.06 248.629C1132.06 248.016 1132 247.406 1131.88 246.805C1131.76 246.207 1131.58 245.621 1131.35 245.055C1131.11 244.488 1130.82 243.953 1130.48 243.441C1130.14 242.934 1129.76 242.461 1129.32 242.027C1128.89 241.594 1128.42 241.207 1127.91 240.867C1127.4 240.527 1126.86 240.238 1126.3 240.004C1125.73 239.77 1125.14 239.594 1124.55 239.473C1123.95 239.355 1123.34 239.293 1122.72 239.293C1122.11 239.293 1121.5 239.355 1120.9 239.473C1120.3 239.594 1119.72 239.77 1119.15 240.004C1118.59 240.238 1118.05 240.527 1117.54 240.867C1117.03 241.207 1116.56 241.594 1116.12 242.027C1115.69 242.461 1115.3 242.934 1114.96 243.441C1114.62 243.953 1114.34 244.488 1114.1 245.055C1113.87 245.621 1113.69 246.207 1113.57 246.805C1113.45 247.406 1113.39 248.016 1113.39 248.629Z" fill="#CCD6DD"/>
<mask id="mask2_3228_9330" style="mask-type:luminance" maskUnits="userSpaceOnUse" x="1024" y="229" width="39" height="39">
<path d="M1024 229.402H1063V267.292H1024V229.402Z" fill="white"/>
</mask>
<g mask="url(#mask2_3228_9330)">
<path d="M1024.73 248.629C1024.73 249.238 1024.76 249.848 1024.82 250.457C1024.88 251.066 1024.96 251.668 1025.09 252.27C1025.2 252.867 1025.35 253.461 1025.53 254.047C1025.71 254.629 1025.91 255.207 1026.15 255.77C1026.38 256.336 1026.64 256.887 1026.93 257.426C1027.22 257.965 1027.53 258.488 1027.87 258.996C1028.21 259.504 1028.57 259.996 1028.96 260.469C1029.35 260.941 1029.76 261.395 1030.19 261.824C1030.63 262.258 1031.08 262.668 1031.55 263.055C1032.02 263.441 1032.51 263.809 1033.02 264.145C1033.53 264.484 1034.05 264.801 1034.59 265.09C1035.13 265.375 1035.68 265.637 1036.25 265.871C1036.81 266.105 1037.39 266.313 1037.97 266.488C1038.56 266.664 1039.15 266.813 1039.75 266.934C1040.35 267.051 1040.95 267.141 1041.56 267.203C1042.17 267.262 1042.78 267.293 1043.39 267.293C1044 267.293 1044.61 267.262 1045.22 267.203C1045.83 267.141 1046.43 267.051 1047.04 266.934C1047.63 266.813 1048.23 266.664 1048.81 266.488C1049.39 266.313 1049.97 266.105 1050.54 265.871C1051.1 265.637 1051.65 265.375 1052.19 265.09C1052.73 264.801 1053.25 264.484 1053.76 264.145C1054.27 263.809 1054.76 263.441 1055.23 263.055C1055.71 262.668 1056.16 262.258 1056.59 261.824C1057.02 261.395 1057.43 260.941 1057.82 260.469C1058.21 259.996 1058.57 259.504 1058.91 258.996C1059.25 258.488 1059.57 257.965 1059.86 257.426C1060.14 256.887 1060.4 256.336 1060.64 255.77C1060.87 255.207 1061.08 254.629 1061.25 254.047C1061.43 253.461 1061.58 252.867 1061.7 252.27C1061.82 251.668 1061.91 251.066 1061.97 250.457C1062.03 249.848 1062.06 249.238 1062.06 248.629C1062.06 248.016 1062.03 247.406 1061.97 246.797C1061.91 246.188 1061.82 245.586 1061.7 244.984C1061.58 244.387 1061.43 243.793 1061.25 243.207C1061.08 242.625 1060.87 242.051 1060.64 241.484C1060.4 240.918 1060.14 240.367 1059.86 239.828C1059.57 239.289 1059.25 238.766 1058.91 238.258C1058.57 237.75 1058.21 237.258 1057.82 236.785C1057.43 236.313 1057.02 235.859 1056.59 235.43C1056.16 234.996 1055.71 234.586 1055.23 234.199C1054.76 233.813 1054.27 233.449 1053.76 233.109C1053.25 232.77 1052.73 232.453 1052.19 232.164C1051.65 231.879 1051.1 231.617 1050.54 231.383C1049.97 231.148 1049.39 230.941 1048.81 230.766C1048.23 230.59 1047.63 230.441 1047.04 230.32C1046.43 230.203 1045.83 230.113 1045.22 230.051C1044.61 229.992 1044 229.961 1043.39 229.961C1042.78 229.961 1042.17 229.992 1041.56 230.051C1040.95 230.113 1040.35 230.203 1039.75 230.32C1039.15 230.441 1038.56 230.59 1037.97 230.766C1037.39 230.941 1036.81 231.148 1036.25 231.383C1035.68 231.617 1035.13 231.879 1034.59 232.164C1034.05 232.453 1033.53 232.77 1033.02 233.109C1032.51 233.449 1032.02 233.813 1031.55 234.199C1031.08 234.586 1030.63 234.996 1030.19 235.43C1029.76 235.859 1029.35 236.313 1028.96 236.785C1028.57 237.258 1028.21 237.75 1027.87 238.258C1027.53 238.766 1027.22 239.289 1026.93 239.828C1026.64 240.367 1026.38 240.918 1026.15 241.484C1025.91 242.051 1025.71 242.625 1025.53 243.207C1025.35 243.793 1025.2 244.387 1025.09 244.984C1024.96 245.586 1024.88 246.188 1024.82 246.797C1024.76 247.406 1024.73 248.016 1024.73 248.629Z" fill="#292F33"/>
</g>
<path d="M1034.06 248.629C1034.06 249.238 1034.12 249.848 1034.24 250.449C1034.36 251.047 1034.54 251.633 1034.77 252.199C1035 252.766 1035.29 253.301 1035.63 253.812C1035.97 254.32 1036.36 254.793 1036.79 255.227C1037.23 255.66 1037.7 256.047 1038.21 256.387C1038.71 256.727 1039.25 257.016 1039.82 257.25C1040.39 257.484 1040.97 257.66 1041.57 257.781C1042.17 257.898 1042.78 257.961 1043.39 257.961C1044 257.961 1044.61 257.898 1045.21 257.781C1045.81 257.66 1046.4 257.484 1046.96 257.25C1047.53 257.016 1048.07 256.727 1048.58 256.387C1049.09 256.047 1049.56 255.66 1049.99 255.227C1050.43 254.793 1050.81 254.32 1051.15 253.812C1051.49 253.301 1051.78 252.766 1052.02 252.199C1052.25 251.633 1052.43 251.047 1052.55 250.449C1052.66 249.848 1052.73 249.238 1052.73 248.629C1052.73 248.016 1052.66 247.406 1052.55 246.805C1052.43 246.207 1052.25 245.621 1052.02 245.055C1051.78 244.488 1051.49 243.953 1051.15 243.441C1050.81 242.934 1050.43 242.461 1049.99 242.027C1049.56 241.594 1049.09 241.207 1048.58 240.867C1048.07 240.527 1047.53 240.238 1046.96 240.004C1046.4 239.77 1045.81 239.594 1045.21 239.473C1044.61 239.355 1044 239.293 1043.39 239.293C1042.78 239.293 1042.17 239.355 1041.57 239.473C1040.97 239.594 1040.39 239.77 1039.82 240.004C1039.25 240.238 1038.71 240.527 1038.21 240.867C1037.7 241.207 1037.23 241.594 1036.79 242.027C1036.36 242.461 1035.97 242.934 1035.63 243.441C1035.29 243.953 1035 244.488 1034.77 245.055C1034.54 245.621 1034.36 246.207 1034.24 246.805C1034.12 247.406 1034.06 248.016 1034.06 248.629Z" fill="#CCD6DD"/>
</svg>
