<svg width="3204" height="287" viewBox="0 0 3204 287" fill="none" xmlns="http://www.w3.org/2000/svg">
<mask id="mask0_3228_9327" style="mask-type:luminance" maskUnits="userSpaceOnUse" x="1712" y="198" width="7" height="69">
<path d="M1712.46 198.516H1718.76V266.84H1712.46V198.516Z" fill="white"/>
</mask>
<g mask="url(#mask0_3228_9327)">
<path d="M1712.46 198.516H1718.76V266.836H1712.46V198.516Z" fill="#59656D"/>
</g>
<mask id="mask1_3228_9327" style="mask-type:luminance" maskUnits="userSpaceOnUse" x="1748" y="198" width="8" height="69">
<path d="M1748.99 198.516H1755.28V266.84H1748.99V198.516Z" fill="white"/>
</mask>
<g mask="url(#mask1_3228_9327)">
<path d="M1748.99 198.516H1755.28V266.836H1748.99V198.516Z" fill="#59656D"/>
</g>
<mask id="mask2_3228_9327" style="mask-type:luminance" maskUnits="userSpaceOnUse" x="1894" y="198" width="7" height="70">
<path d="M1894.62 198.742H1900.91V267.067H1894.62V198.742Z" fill="white"/>
</mask>
<g mask="url(#mask2_3228_9327)">
<path d="M1894.62 198.742H1900.91V267.067H1894.62V198.742Z" fill="#59656D"/>
</g>
<mask id="mask3_3228_9327" style="mask-type:luminance" maskUnits="userSpaceOnUse" x="1930" y="198" width="8" height="70">
<path d="M1930.91 198.742H1937.21V267.067H1930.91V198.742Z" fill="white"/>
</mask>
<g mask="url(#mask3_3228_9327)">
<path d="M1930.91 198.742H1937.21V267.067H1930.91V198.742Z" fill="#59656D"/>
</g>
<mask id="mask4_3228_9327" style="mask-type:luminance" maskUnits="userSpaceOnUse" x="1967" y="198" width="7" height="70">
<path d="M1967.43 198.742H1973.73V267.067H1967.43V198.742Z" fill="white"/>
</mask>
<g mask="url(#mask4_3228_9327)">
<path d="M1967.43 198.742H1973.73V267.067H1967.43V198.742Z" fill="#59656D"/>
</g>
<mask id="mask5_3228_9327" style="mask-type:luminance" maskUnits="userSpaceOnUse" x="1736" y="15" width="13" height="143">
<path d="M1736.56 15.8438H1748.99V157.973H1736.56V15.8438Z" fill="white"/>
</mask>
<g mask="url(#mask5_3228_9327)">
<path d="M1736.56 15.8438H1748.99V157.988H1736.56V15.8438Z" fill="white"/>
</g>
<mask id="mask6_3228_9327" style="mask-type:luminance" maskUnits="userSpaceOnUse" x="1930" y="15" width="14" height="143">
<path d="M1930.82 15.8438H1943.25V157.973H1930.82V15.8438Z" fill="white"/>
</mask>
<g mask="url(#mask6_3228_9327)">
<path d="M1930.82 15.8438H1943.25V157.988H1930.82V15.8438Z" fill="white"/>
</g>
<mask id="mask7_3228_9327" style="mask-type:luminance" maskUnits="userSpaceOnUse" x="1597" y="0" width="516" height="32">
<path d="M1597.12 0H2112.4V31.6875H1597.12V0Z" fill="white"/>
</mask>
<g mask="url(#mask7_3228_9327)">
<path d="M1597.12 0H2112.39V31.6875H1597.12V0Z" fill="#E8533E"/>
</g>
<mask id="mask8_3228_9327" style="mask-type:luminance" maskUnits="userSpaceOnUse" x="1701" y="151" width="88" height="117">
<path d="M1701.44 151.57H1788.43V267.297H1701.44V151.57Z" fill="white"/>
</mask>
<g mask="url(#mask8_3228_9327)">
<path d="M1701.44 151.57H1788.43V267.441H1701.44V151.57Z" fill="#FFB443"/>
</g>
<mask id="mask9_3228_9327" style="mask-type:luminance" maskUnits="userSpaceOnUse" x="1706" y="163" width="56" height="24">
<path d="M1706.11 163.832H1761V186.516H1706.11V163.832Z" fill="white"/>
</mask>
<g mask="url(#mask9_3228_9327)">
<path d="M1706.11 163.832H1761.04V186.516H1706.11V163.832Z" fill="#CCD6DD"/>
</g>
<mask id="mask10_3228_9327" style="mask-type:luminance" maskUnits="userSpaceOnUse" x="1763" y="163" width="17" height="24">
<path d="M1763.87 163.832H1779.35V186.516H1763.87V163.832Z" fill="white"/>
</mask>
<g mask="url(#mask10_3228_9327)">
<path d="M1763.87 163.832H1779.35V186.508H1763.87V163.832Z" fill="#CCD6DD"/>
</g>
<mask id="mask11_3228_9327" style="mask-type:luminance" maskUnits="userSpaceOnUse" x="1708" y="219" width="17" height="24">
<path d="M1708.95 219.934H1724.43V242.613H1708.95V219.934Z" fill="white"/>
</mask>
<g mask="url(#mask11_3228_9327)">
<path d="M1708.95 219.934H1724.43V242.605H1708.95V219.934Z" fill="#CCD6DD"/>
</g>
<mask id="mask12_3228_9327" style="mask-type:luminance" maskUnits="userSpaceOnUse" x="1714" y="147" width="5" height="73">
<path d="M1714.71 147.086H1718.46V219.934H1714.71V147.086Z" fill="white"/>
</mask>
<g mask="url(#mask12_3228_9327)">
<path d="M1714.71 147.086H1718.46V219.934H1714.71V147.086Z" fill="#020304"/>
</g>
<mask id="mask13_3228_9327" style="mask-type:luminance" maskUnits="userSpaceOnUse" x="1712" y="219" width="9" height="18">
<path d="M1712.96 219.934H1720.2V236.016H1712.96V219.934Z" fill="white"/>
</mask>
<g mask="url(#mask13_3228_9327)">
<path d="M1712.96 219.934H1720.2V236.027H1712.96V219.934Z" fill="#E50B0C"/>
</g>
<mask id="mask14_3228_9327" style="mask-type:luminance" maskUnits="userSpaceOnUse" x="1714" y="236" width="5" height="5">
<path d="M1714.71 236.016H1718.46V240.309H1714.71V236.016Z" fill="white"/>
</mask>
<g mask="url(#mask14_3228_9327)">
<path d="M1714.71 236.016H1718.46V240.309H1714.71V236.016Z" fill="#020304"/>
</g>
<mask id="mask15_3228_9327" style="mask-type:luminance" maskUnits="userSpaceOnUse" x="1735" y="219" width="16" height="24">
<path d="M1735.04 219.934H1750.52V242.613H1735.04V219.934Z" fill="white"/>
</mask>
<g mask="url(#mask15_3228_9327)">
<path d="M1735.04 219.934H1750.52V242.605H1735.04V219.934Z" fill="#CCD6DD"/>
</g>
<mask id="mask16_3228_9327" style="mask-type:luminance" maskUnits="userSpaceOnUse" x="1740" y="147" width="5" height="73">
<path d="M1740.79 147.086H1744.54V219.934H1740.79V147.086Z" fill="white"/>
</mask>
<g mask="url(#mask16_3228_9327)">
<path d="M1740.79 147.086H1744.54V219.934H1740.79V147.086Z" fill="#020304"/>
</g>
<mask id="mask17_3228_9327" style="mask-type:luminance" maskUnits="userSpaceOnUse" x="1739" y="219" width="8" height="18">
<path d="M1739.05 219.934H1746.29V236.016H1739.05V219.934Z" fill="white"/>
</mask>
<g mask="url(#mask17_3228_9327)">
<path d="M1739.05 219.934H1746.29V236.027H1739.05V219.934Z" fill="#E50B0C"/>
</g>
<mask id="mask18_3228_9327" style="mask-type:luminance" maskUnits="userSpaceOnUse" x="1740" y="236" width="5" height="5">
<path d="M1740.79 236.016H1744.54V240.309H1740.79V236.016Z" fill="white"/>
</mask>
<g mask="url(#mask18_3228_9327)">
<path d="M1740.79 236.016H1744.54V240.309H1740.79V236.016Z" fill="#020304"/>
</g>
<mask id="mask19_3228_9327" style="mask-type:luminance" maskUnits="userSpaceOnUse" x="1761" y="219" width="16" height="24">
<path d="M1761.12 219.934H1776.6V242.613H1761.12V219.934Z" fill="white"/>
</mask>
<g mask="url(#mask19_3228_9327)">
<path d="M1761.12 219.934H1776.6V242.605H1761.12V219.934Z" fill="#CCD6DD"/>
</g>
<mask id="mask20_3228_9327" style="mask-type:luminance" maskUnits="userSpaceOnUse" x="1766" y="147" width="5" height="73">
<path d="M1766.88 147.086H1770.63V219.934H1766.88V147.086Z" fill="white"/>
</mask>
<g mask="url(#mask20_3228_9327)">
<path d="M1766.88 147.086H1770.63V219.934H1766.88V147.086Z" fill="#020304"/>
</g>
<mask id="mask21_3228_9327" style="mask-type:luminance" maskUnits="userSpaceOnUse" x="1765" y="219" width="8" height="18">
<path d="M1765.14 219.934H1772.37V236.016H1765.14V219.934Z" fill="white"/>
</mask>
<g mask="url(#mask21_3228_9327)">
<path d="M1765.14 219.934H1772.37V236.027H1765.14V219.934Z" fill="#E50B0C"/>
</g>
<mask id="mask22_3228_9327" style="mask-type:luminance" maskUnits="userSpaceOnUse" x="1766" y="236" width="5" height="5">
<path d="M1766.88 236.016H1770.63V240.309H1766.88V236.016Z" fill="white"/>
</mask>
<g mask="url(#mask22_3228_9327)">
<path d="M1766.88 236.016H1770.63V240.309H1766.88V236.016Z" fill="#020304"/>
</g>
<mask id="mask23_3228_9327" style="mask-type:luminance" maskUnits="userSpaceOnUse" x="1893" y="151" width="88" height="116">
<path d="M1893.54 151.113H1980.53V266.84H1893.54V151.113Z" fill="white"/>
</mask>
<g mask="url(#mask23_3228_9327)">
<path d="M1893.54 151.113H1980.53V266.98H1893.54V151.113Z" fill="#FFB443"/>
</g>
<mask id="mask24_3228_9327" style="mask-type:luminance" maskUnits="userSpaceOnUse" x="1898" y="163" width="56" height="24">
<path d="M1898.2 163.375H1953.11V186.059H1898.2V163.375Z" fill="white"/>
</mask>
<g mask="url(#mask24_3228_9327)">
<path d="M1898.2 163.375H1953.14V186.059H1898.2V163.375Z" fill="#CCD6DD"/>
</g>
<mask id="mask25_3228_9327" style="mask-type:luminance" maskUnits="userSpaceOnUse" x="1955" y="163" width="17" height="24">
<path d="M1955.97 163.375H1971.45V186.059H1955.97V163.375Z" fill="white"/>
</mask>
<g mask="url(#mask25_3228_9327)">
<path d="M1955.97 163.375H1971.45V186.047H1955.97V163.375Z" fill="#CCD6DD"/>
</g>
<mask id="mask26_3228_9327" style="mask-type:luminance" maskUnits="userSpaceOnUse" x="1901" y="219" width="16" height="24">
<path d="M1901.05 219.476H1916.53V242.156H1901.05V219.476Z" fill="white"/>
</mask>
<g mask="url(#mask26_3228_9327)">
<path d="M1901.05 219.476H1916.53V242.148H1901.05V219.476Z" fill="#CCD6DD"/>
</g>
<mask id="mask27_3228_9327" style="mask-type:luminance" maskUnits="userSpaceOnUse" x="1906" y="146" width="5" height="74">
<path d="M1906.8 146.629H1910.55V219.477H1906.8V146.629Z" fill="white"/>
</mask>
<g mask="url(#mask27_3228_9327)">
<path d="M1906.8 146.629H1910.55V219.477H1906.8V146.629Z" fill="#020304"/>
</g>
<mask id="mask28_3228_9327" style="mask-type:luminance" maskUnits="userSpaceOnUse" x="1905" y="219" width="8" height="17">
<path d="M1905.07 219.476H1912.3V235.558H1905.07V219.476Z" fill="white"/>
</mask>
<g mask="url(#mask28_3228_9327)">
<path d="M1905.07 219.476H1912.3V235.57H1905.07V219.476Z" fill="#E50B0C"/>
</g>
<mask id="mask29_3228_9327" style="mask-type:luminance" maskUnits="userSpaceOnUse" x="1906" y="235" width="5" height="5">
<path d="M1906.8 235.559H1910.55V239.852H1906.8V235.559Z" fill="white"/>
</mask>
<g mask="url(#mask29_3228_9327)">
<path d="M1906.8 235.559H1910.55V239.848H1906.8V235.559Z" fill="#020304"/>
</g>
<mask id="mask30_3228_9327" style="mask-type:luminance" maskUnits="userSpaceOnUse" x="1927" y="219" width="16" height="24">
<path d="M1927.14 219.476H1942.61V242.156H1927.14V219.476Z" fill="white"/>
</mask>
<g mask="url(#mask30_3228_9327)">
<path d="M1927.14 219.476H1942.61V242.148H1927.14V219.476Z" fill="#CCD6DD"/>
</g>
<mask id="mask31_3228_9327" style="mask-type:luminance" maskUnits="userSpaceOnUse" x="1932" y="146" width="5" height="74">
<path d="M1932.89 146.629H1936.64V219.477H1932.89V146.629Z" fill="white"/>
</mask>
<g mask="url(#mask31_3228_9327)">
<path d="M1932.89 146.629H1936.64V219.477H1932.89V146.629Z" fill="#020304"/>
</g>
<mask id="mask32_3228_9327" style="mask-type:luminance" maskUnits="userSpaceOnUse" x="1931" y="219" width="8" height="17">
<path d="M1931.16 219.476H1938.38V235.558H1931.16V219.476Z" fill="white"/>
</mask>
<g mask="url(#mask32_3228_9327)">
<path d="M1931.16 219.476H1938.38V235.57H1931.16V219.476Z" fill="#E50B0C"/>
</g>
<mask id="mask33_3228_9327" style="mask-type:luminance" maskUnits="userSpaceOnUse" x="1932" y="235" width="5" height="5">
<path d="M1932.89 235.559H1936.64V239.852H1932.89V235.559Z" fill="white"/>
</mask>
<g mask="url(#mask33_3228_9327)">
<path d="M1932.89 235.559H1936.64V239.848H1932.89V235.559Z" fill="#020304"/>
</g>
<mask id="mask34_3228_9327" style="mask-type:luminance" maskUnits="userSpaceOnUse" x="1953" y="219" width="16" height="24">
<path d="M1953.23 219.476H1968.7V242.156H1953.23V219.476Z" fill="white"/>
</mask>
<g mask="url(#mask34_3228_9327)">
<path d="M1953.23 219.476H1968.7V242.148H1953.23V219.476Z" fill="#CCD6DD"/>
</g>
<mask id="mask35_3228_9327" style="mask-type:luminance" maskUnits="userSpaceOnUse" x="1958" y="146" width="5" height="74">
<path d="M1958.98 146.629H1962.73V219.477H1958.98V146.629Z" fill="white"/>
</mask>
<g mask="url(#mask35_3228_9327)">
<path d="M1958.98 146.629H1962.73V219.477H1958.98V146.629Z" fill="#020304"/>
</g>
<mask id="mask36_3228_9327" style="mask-type:luminance" maskUnits="userSpaceOnUse" x="1957" y="219" width="8" height="17">
<path d="M1957.25 219.476H1964.47V235.558H1957.25V219.476Z" fill="white"/>
</mask>
<g mask="url(#mask36_3228_9327)">
<path d="M1957.25 219.476H1964.47V235.57H1957.25V219.476Z" fill="#E50B0C"/>
</g>
<mask id="mask37_3228_9327" style="mask-type:luminance" maskUnits="userSpaceOnUse" x="1958" y="235" width="5" height="5">
<path d="M1958.98 235.559H1962.73V239.852H1958.98V235.559Z" fill="white"/>
</mask>
<g mask="url(#mask37_3228_9327)">
<path d="M1958.98 235.559H1962.73V239.848H1958.98V235.559Z" fill="#020304"/>
</g>
</svg>
