<svg width="213" height="56" viewBox="0 0 213 56" fill="none" xmlns="http://www.w3.org/2000/svg">
<path d="M32.7585 22.8232L24.3762 49.8899C24.6418 50.6116 28.8302 48.6268 32.0116 47.8148L34.6674 22.8232H32.7585Z" fill="#F2BB49"/>
<path d="M32.1777 22.8232L23.0117 50.0596C20.3032 51.5318 17.6538 50.6116 15.745 50.6116L30.6913 22.8232H32.1777Z" fill="#F2BB49"/>
<path fill-rule="evenodd" clip-rule="evenodd" d="M53.1507 15.1697C52.6036 13.0362 51.612 11.1006 50.1496 9.4668C43.1951 1.69702 28.2267 3.69595 16.7167 13.9315C5.20668 24.1671 1.51374 38.7634 8.46826 46.5331C15.4228 54.3029 30.3912 52.304 41.9012 42.0684C45.6353 38.7477 48.5467 34.9681 50.5387 31.1114C50.3061 30.5614 50.0465 29.9787 49.7601 29.3714C49.1403 31.6035 47.177 34.8095 44.3553 37.9393C43.8298 38.5221 43.2987 39.0757 42.7682 39.596C41.7781 40.6036 40.663 41.6237 39.4474 42.6193C36.2393 45.2467 33.0013 47.1544 30.493 48.0345C24.2879 50.5659 17.913 50.648 13.2138 48.3901L17.9433 39.5049C25.8276 26.8899 28.5259 23.2201 37.5722 23.2201H46.3252C44.4263 20.3177 42.0928 17.4439 39.3726 15.1879H18.412C27.6986 8.02838 38.7146 6.69491 43.8364 12.4171C44.5714 13.2383 45.1478 14.1631 45.5717 15.1697H41.3662C44.1597 17.7496 46.4927 20.8871 48.3272 23.9057C49.5713 25.953 50.5951 27.9603 51.3836 29.7248C55.092 24.3184 55.758 17.2351 55.2798 15.1697H53.1507ZM6.38649 33.9725C6.93249 29.5847 9.22126 24.7185 12.9819 20.3335H26.5341C23.2356 20.3335 11.075 41.8864 9.25187 45.4788C8.80161 44.9852 8.39057 44.4519 8.02292 43.8789C6.17111 40.9931 5.69036 37.5244 6.38649 33.9725Z" fill="white"/>
<g filter="url(#filter0_d_3139_205)">
<path d="M79.5016 29.1588H75.0322V16.2712H70.9928V12.6165H83.5297V16.2712H79.5016V29.1588ZM91.3143 12.6165C92.8153 12.6165 94.0638 12.8014 95.0595 13.171C96.0552 13.533 96.8019 14.0762 97.2998 14.8003C97.8052 15.5245 98.0579 16.4259 98.0579 17.5045C98.0579 18.1759 97.9447 18.7869 97.7184 19.3375C97.4921 19.8882 97.1678 20.3823 96.7454 20.8198C96.3305 21.2498 95.8326 21.6269 95.2518 21.9513L100.072 29.1588H95.0029L91.4953 23.1393H90.3638V29.1588H85.8944V12.6165H91.3143ZM91.2464 15.9997H90.3638V19.7788H91.2011C91.8875 19.7788 92.4495 19.628 92.887 19.3262C93.3245 19.0245 93.5433 18.4852 93.5433 17.7082C93.5433 17.1726 93.3622 16.754 93.0002 16.4523C92.6381 16.1505 92.0535 15.9997 91.2464 15.9997ZM111.726 29.1588L110.912 26.0586H105.537L104.7 29.1588H99.7891L105.186 12.5487H111.149L116.614 29.1588H111.726ZM109.984 22.3925L109.271 19.677C109.195 19.3828 109.086 18.9642 108.943 18.421C108.799 17.8704 108.656 17.3047 108.513 16.7238C108.377 16.1355 108.271 15.6527 108.196 15.2755C108.128 15.6527 108.03 16.1204 107.902 16.6786C107.781 17.2292 107.653 17.7761 107.517 18.3192C107.389 18.8623 107.276 19.3149 107.178 19.677L106.465 22.3925H109.984ZM129.23 24.135C129.23 25.0327 129.004 25.8851 128.551 26.6922C128.099 27.4918 127.393 28.1405 126.435 28.6383C125.485 29.1362 124.255 29.3851 122.747 29.3851C121.993 29.3851 121.329 29.3512 120.755 29.2833C120.19 29.2154 119.662 29.106 119.171 28.9551C118.681 28.7967 118.172 28.5931 117.644 28.3441V24.3613C118.541 24.8139 119.447 25.1609 120.359 25.4023C121.272 25.6361 122.098 25.7531 122.837 25.7531C123.282 25.7531 123.644 25.7002 123.924 25.5946C124.21 25.489 124.421 25.3457 124.557 25.1647C124.693 24.9761 124.761 24.7611 124.761 24.5197C124.761 24.2331 124.659 23.9917 124.455 23.7956C124.259 23.5919 123.942 23.3807 123.505 23.162C123.067 22.9432 122.49 22.6716 121.774 22.3473C121.163 22.0606 120.608 21.7665 120.11 21.4647C119.62 21.163 119.198 20.8198 118.843 20.4351C118.496 20.0428 118.228 19.5865 118.04 19.066C117.851 18.5455 117.757 17.9307 117.757 17.2217C117.757 16.1581 118.017 15.268 118.538 14.5514C119.066 13.8272 119.797 13.2841 120.733 12.922C121.676 12.56 122.762 12.3789 123.991 12.3789C125.07 12.3789 126.039 12.4996 126.899 12.741C127.767 12.9824 128.544 13.2577 129.23 13.567L127.861 17.018C127.152 16.6936 126.454 16.4372 125.768 16.2486C125.081 16.0525 124.444 15.9544 123.856 15.9544C123.471 15.9544 123.154 16.0034 122.905 16.1015C122.664 16.192 122.483 16.3165 122.362 16.4749C122.249 16.6333 122.192 16.8143 122.192 17.018C122.192 17.2745 122.29 17.5045 122.487 17.7082C122.69 17.9119 123.026 18.1344 123.494 18.3758C123.969 18.6096 124.614 18.9151 125.428 19.2923C126.236 19.6544 126.922 20.0466 127.488 20.469C128.053 20.8839 128.483 21.3855 128.778 21.9739C129.079 22.5547 129.23 23.2751 129.23 24.135ZM145.965 29.1588H141.473V22.4152H136.279V29.1588H131.787V12.6165H136.279V18.7492H141.473V12.6165H145.965V29.1588Z" fill="#FFCB5F"/>
<path d="M156.85 29.1588H152.38V16.2712H148.341V12.6165H160.878V16.2712H156.85V29.1588ZM178.721 20.865C178.721 22.1399 178.567 23.3015 178.257 24.35C177.956 25.391 177.48 26.2886 176.832 27.0429C176.183 27.7973 175.349 28.3781 174.331 28.7854C173.313 29.1852 172.095 29.3851 170.676 29.3851C169.288 29.3851 168.085 29.1852 167.067 28.7854C166.056 28.3781 165.223 27.801 164.566 27.0543C163.91 26.2999 163.424 25.3985 163.107 24.35C162.79 23.3015 162.632 22.1323 162.632 20.8424C162.632 19.1226 162.914 17.629 163.48 16.3617C164.053 15.0869 164.936 14.1026 166.128 13.4086C167.32 12.7071 168.843 12.3563 170.699 12.3563C172.585 12.3563 174.116 12.7071 175.293 13.4086C176.477 14.1101 177.345 15.0983 177.895 16.3731C178.446 17.6479 178.721 19.1452 178.721 20.865ZM167.339 20.865C167.339 21.8608 167.452 22.7169 167.678 23.4335C167.904 24.1501 168.263 24.7008 168.753 25.0855C169.243 25.4702 169.884 25.6625 170.676 25.6625C171.499 25.6625 172.151 25.4702 172.634 25.0855C173.124 24.7008 173.475 24.1501 173.686 23.4335C173.905 22.7169 174.014 21.8608 174.014 20.865C174.014 19.3715 173.765 18.191 173.268 17.3235C172.77 16.456 171.914 16.0223 170.699 16.0223C169.892 16.0223 169.239 16.2184 168.742 16.6107C168.251 17.0029 167.893 17.5611 167.667 18.2853C167.448 19.0094 167.339 19.8693 167.339 20.865ZM181.708 29.1588V12.6165H186.178V25.5494H192.548V29.1588H181.708ZM195.196 29.1588V12.6165H199.665V25.5494H206.035V29.1588H195.196Z" fill="white"/>
</g>
<g filter="url(#filter1_d_3139_205)">
<path d="M169.929 30.3509C169.929 31.2006 169.713 32.0117 169.28 32.7841C168.863 33.5565 168.292 34.2362 167.566 34.8233C166.855 35.3949 166.013 35.8506 165.04 36.1905C164.082 36.5303 163.062 36.7003 161.981 36.7003C161.595 36.7003 161.286 36.6539 161.054 36.5612C160.838 36.4531 160.591 36.2523 160.313 35.9588C159.54 37.6426 158.907 39.1952 158.412 40.6165C157.933 42.0223 157.555 43.3895 157.277 44.7181C156.69 44.579 156.211 44.3318 155.84 43.9765C155.469 43.6367 155.13 43.2041 154.821 42.6789C154.975 42.3853 155.16 41.9991 155.377 41.5202C155.593 41.0413 155.856 40.4543 156.165 39.7591C156.474 39.0485 156.829 38.2065 157.231 37.2333C157.648 36.2446 158.134 35.0936 158.69 33.7805C158.938 33.178 159.154 32.6528 159.339 32.2048C159.525 31.7568 159.687 31.3397 159.826 30.9534C159.965 30.5518 160.089 30.1578 160.197 29.7716C160.32 29.3854 160.444 28.9606 160.567 28.4971C159.841 28.7289 159.169 28.9992 158.551 29.3082C157.949 29.6171 157.447 29.9416 157.045 30.2814C156.906 30.1887 156.759 30.0497 156.605 29.8643C156.466 29.6789 156.335 29.4781 156.211 29.2618C156.087 29.0301 155.979 28.7984 155.887 28.5666C155.794 28.3349 155.74 28.1264 155.724 27.941C156.172 27.632 156.728 27.3462 157.393 27.0836C158.057 26.821 158.768 26.597 159.525 26.4116C160.282 26.2107 161.062 26.0563 161.865 25.9481C162.684 25.84 163.464 25.7859 164.206 25.7859C165.086 25.7859 165.882 25.9018 166.592 26.1335C167.303 26.3498 167.905 26.6588 168.4 27.0604C168.894 27.4621 169.273 27.941 169.535 28.4971C169.798 29.0533 169.929 29.6712 169.929 30.3509ZM165.804 27.5702C165.217 27.5702 164.615 27.6166 163.997 27.7093L164.275 28.1264C164.121 28.3272 163.927 28.6284 163.696 29.0301C163.464 29.4318 163.209 29.9184 162.931 30.49C162.653 31.0461 162.344 31.6718 162.004 32.367C161.68 33.0622 161.332 33.796 160.961 34.5684C162.166 34.5684 163.263 34.4602 164.252 34.244C165.241 34.0122 166.083 33.7033 166.778 33.3171C167.488 32.9154 168.037 32.4519 168.423 31.9267C168.825 31.4014 169.025 30.8376 169.025 30.2351C169.025 29.4318 168.755 28.7906 168.214 28.3117C167.674 27.8174 166.87 27.5702 165.804 27.5702ZM176.352 33.4793C176.507 33.4793 176.685 33.5102 176.885 33.572C177.102 33.6183 177.295 33.6878 177.465 33.7805C177.635 33.8578 177.774 33.9427 177.882 34.0354C178.005 34.1281 178.067 34.2131 178.067 34.2903C177.758 34.9392 177.472 35.5957 177.21 36.26C176.947 36.9088 176.723 37.5345 176.538 38.137C176.352 38.7395 176.206 39.3034 176.098 39.8286C176.005 40.3539 175.958 40.8096 175.958 41.1958C175.958 41.6284 176.005 41.9914 176.098 42.2849C176.19 42.563 176.345 42.7638 176.561 42.8874C176.376 43.011 176.136 43.1114 175.843 43.1887C175.549 43.2659 175.286 43.3045 175.055 43.3045C174.221 43.3045 173.803 42.7329 173.803 41.5897C173.803 40.7092 174.097 39.5042 174.684 37.9748C174.375 38.6854 174.02 39.3574 173.618 39.9908C173.216 40.6088 172.807 41.1572 172.39 41.6361C171.973 42.115 171.548 42.5089 171.115 42.8179C170.698 43.1114 170.312 43.2891 169.957 43.3509C169.385 43.32 168.922 43.0496 168.566 42.5398C168.211 42.0146 168.033 41.3503 168.033 40.547C168.033 39.6818 168.219 38.7704 168.59 37.8126C168.96 36.8548 169.431 35.9665 170.003 35.1477C170.59 34.3289 171.223 33.6492 171.903 33.1085C172.583 32.5524 173.24 32.2588 173.873 32.2279C174.027 32.2743 174.197 32.367 174.383 32.506C174.584 32.6451 174.769 32.8073 174.939 32.9926C175.124 33.178 175.279 33.3711 175.402 33.572C175.526 33.7573 175.595 33.9196 175.611 34.0586C174.993 34.1513 174.352 34.4525 173.688 34.9623C173.039 35.4721 172.444 36.0901 171.903 36.8161C171.378 37.5268 170.945 38.2915 170.606 39.1103C170.266 39.929 170.096 40.6937 170.096 41.4044C170.096 41.6979 170.204 41.8833 170.42 41.9605C170.868 41.8678 171.386 41.4893 171.973 40.825C172.56 40.1453 173.27 39.1025 174.105 37.6967C174.259 37.4186 174.429 37.1097 174.614 36.7698C174.815 36.4299 175.016 36.0746 175.217 35.7039C175.418 35.3331 175.611 34.9623 175.796 34.5916C175.997 34.2053 176.182 33.8346 176.352 33.4793ZM187.865 39.2493C187.51 40.377 187.154 41.4044 186.799 42.3313C186.444 43.2582 186.065 44.1078 185.664 44.8803C185.262 45.6681 184.829 46.3865 184.366 47.0353C183.903 47.6996 183.393 48.3253 182.837 48.9123C182.126 49.6539 181.392 50.2177 180.635 50.6039C179.878 51.0056 179.121 51.2064 178.364 51.2064C177.978 51.2064 177.592 51.1601 177.206 51.0674C176.835 50.9902 176.487 50.8743 176.163 50.7198C175.823 50.5808 175.529 50.4108 175.282 50.21C175.02 50.0246 174.834 49.8238 174.726 49.6075C174.726 49.4221 174.834 49.2599 175.051 49.1209C175.236 49.2908 175.39 49.4221 175.514 49.5148C175.638 49.6075 175.761 49.6848 175.885 49.7465C175.993 49.8083 176.117 49.847 176.256 49.8624C176.379 49.8779 176.526 49.8856 176.696 49.8856C177.576 49.8856 178.434 49.623 179.268 49.0977C180.118 48.5879 180.913 47.8541 181.655 46.8963C182.412 45.9539 183.099 44.803 183.717 43.4436C184.335 42.0995 184.86 40.5933 185.293 38.9249C185.092 39.2338 184.845 39.6123 184.551 40.0603C184.258 40.5083 183.933 40.9563 183.578 41.4044C183.223 41.8369 182.852 42.2308 182.466 42.5862C182.095 42.9415 181.732 43.1809 181.377 43.3045C181.13 43.2891 180.867 43.235 180.589 43.1423C180.326 43.0651 180.071 42.9492 179.824 42.7947C179.592 42.6402 179.384 42.4549 179.198 42.2386C179.013 42.0223 178.89 41.7751 178.828 41.497C178.828 41.049 178.843 40.6937 178.874 40.4311C178.905 40.153 178.959 39.8518 179.036 39.5274C179.175 38.9403 179.376 38.276 179.639 37.5345C179.917 36.793 180.234 36.0669 180.589 35.3563C180.96 34.6302 181.361 33.9582 181.794 33.3402C182.242 32.7068 182.705 32.2125 183.184 31.8572C183.308 31.8572 183.462 31.8726 183.648 31.9035C183.833 31.919 184.026 31.9576 184.227 32.0194C184.428 32.0812 184.621 32.1584 184.806 32.2511C184.992 32.3284 185.154 32.4365 185.293 32.5755C185.123 32.73 184.752 33.2475 184.181 34.1281C183.609 35.0087 182.976 36.2754 182.28 37.9284C182.203 38.0984 182.111 38.3455 182.002 38.67C181.894 38.9944 181.786 39.3343 181.678 39.6896C181.585 40.0449 181.5 40.3925 181.423 40.7323C181.346 41.0722 181.307 41.3426 181.307 41.5434C181.307 41.667 181.323 41.7597 181.354 41.8215C181.4 41.8833 181.439 41.9296 181.469 41.9605C181.747 41.9142 182.118 41.6902 182.582 41.2885C183.045 40.8714 183.57 40.2303 184.157 39.3652C184.528 38.809 184.868 38.2606 185.177 37.7199C185.486 37.1637 185.787 36.6076 186.081 36.0514C186.39 35.4953 186.706 34.9237 187.031 34.3367C187.355 33.7496 187.703 33.1471 188.074 32.5292C188.274 32.5292 188.491 32.5524 188.722 32.5987C188.954 32.6451 189.178 32.7068 189.395 32.7841C189.611 32.8459 189.796 32.9231 189.951 33.0158C190.121 33.0931 190.244 33.178 190.321 33.2707C189.843 34.2903 189.395 35.2867 188.977 36.26C188.56 37.2333 188.19 38.2297 187.865 39.2493Z" fill="#FFCB5F"/>
</g>
<g filter="url(#filter2_d_3139_205)">
<path d="M152.816 38.4714C146.177 32.5289 97.4766 32.7442 73.9564 33.5946C97.3512 34.0181 145.61 36.1417 151.488 41.2478L152.816 38.4714Z" fill="#FFCB5F"/>
<path d="M152.816 38.4714C146.177 32.5289 97.4766 32.7442 73.9564 33.5946C97.3512 34.0181 145.61 36.1417 151.488 41.2478L152.816 38.4714Z" stroke="#FFCB5F" stroke-width="0.362074"/>
</g>
<defs>
<filter id="filter0_d_3139_205" x="69.5445" y="12.3563" width="137.939" height="19.9254" filterUnits="userSpaceOnUse" color-interpolation-filters="sRGB">
<feFlood flood-opacity="0" result="BackgroundImageFix"/>
<feColorMatrix in="SourceAlpha" type="matrix" values="0 0 0 0 0 0 0 0 0 0 0 0 0 0 0 0 0 0 127 0" result="hardAlpha"/>
<feOffset dy="1.4483"/>
<feGaussianBlur stdDeviation="0.724149"/>
<feComposite in2="hardAlpha" operator="out"/>
<feColorMatrix type="matrix" values="0 0 0 0 0 0 0 0 0 0 0 0 0 0 0 0 0 0 0.25 0"/>
<feBlend mode="normal" in2="BackgroundImageFix" result="effect1_dropShadow_3139_205"/>
<feBlend mode="normal" in="SourceGraphic" in2="effect1_dropShadow_3139_205" result="shape"/>
</filter>
<filter id="filter1_d_3139_205" x="153.372" y="25.7859" width="38.3973" height="28.3171" filterUnits="userSpaceOnUse" color-interpolation-filters="sRGB">
<feFlood flood-opacity="0" result="BackgroundImageFix"/>
<feColorMatrix in="SourceAlpha" type="matrix" values="0 0 0 0 0 0 0 0 0 0 0 0 0 0 0 0 0 0 127 0" result="hardAlpha"/>
<feOffset dy="1.4483"/>
<feGaussianBlur stdDeviation="0.724149"/>
<feComposite in2="hardAlpha" operator="out"/>
<feColorMatrix type="matrix" values="0 0 0 0 0 0 0 0 0 0 0 0 0 0 0 0 0 0 0.25 0"/>
<feBlend mode="normal" in2="BackgroundImageFix" result="effect1_dropShadow_3139_205"/>
<feBlend mode="normal" in="SourceGraphic" in2="effect1_dropShadow_3139_205" result="shape"/>
</filter>
<filter id="filter2_d_3139_205" x="72.5015" y="32.9685" width="81.9846" height="11.4685" filterUnits="userSpaceOnUse" color-interpolation-filters="sRGB">
<feFlood flood-opacity="0" result="BackgroundImageFix"/>
<feColorMatrix in="SourceAlpha" type="matrix" values="0 0 0 0 0 0 0 0 0 0 0 0 0 0 0 0 0 0 127 0" result="hardAlpha"/>
<feOffset dy="1.4483"/>
<feGaussianBlur stdDeviation="0.724149"/>
<feComposite in2="hardAlpha" operator="out"/>
<feColorMatrix type="matrix" values="0 0 0 0 0 0 0 0 0 0 0 0 0 0 0 0 0 0 0.25 0"/>
<feBlend mode="normal" in2="BackgroundImageFix" result="effect1_dropShadow_3139_205"/>
<feBlend mode="normal" in="SourceGraphic" in2="effect1_dropShadow_3139_205" result="shape"/>
</filter>
</defs>
</svg>
