<svg width="304" height="281" viewBox="0 0 304 281" fill="none" xmlns="http://www.w3.org/2000/svg">
<path d="M167.5 109L117 272.065C118.6 276.413 143.833 264.455 163 259.563L179 109H167.5Z" fill="#F2BB49"/>
<path d="M164 109L108.779 273.087C92.4613 281.957 76.5 276.413 65 276.413L155.045 109H164Z" fill="#F2BB49"/>
<path fill-rule="evenodd" clip-rule="evenodd" d="M290.354 62.8906C287.058 50.0373 281.084 38.3759 272.274 28.5329C230.376 -18.2768 140.197 -6.23403 70.8542 55.4311C1.51141 117.096 -20.737 205.032 21.161 251.842C63.059 298.652 153.238 286.609 222.58 224.944C245.077 204.938 262.617 182.167 274.618 158.933C273.217 155.619 271.652 152.109 269.927 148.45C266.193 161.897 254.365 181.212 237.366 200.068C234.2 203.579 231 206.914 227.804 210.049C221.839 216.119 215.121 222.265 207.797 228.263C188.47 244.092 168.962 255.585 153.851 260.887C116.468 276.138 78.0615 276.633 49.7507 263.029L78.244 209.5C125.744 133.5 142 111.391 196.5 111.391H249.233C237.793 93.9051 223.735 76.5918 207.347 63H81.0679C137.016 19.867 203.383 11.8334 234.239 46.3074C238.667 51.2544 242.14 56.8261 244.694 62.8906H219.357C236.187 78.4336 250.242 97.3353 261.294 115.521C268.79 127.855 274.957 139.949 279.708 150.579C302.049 118.008 306.062 75.3334 303.181 62.8906H290.354ZM8.61962 176.168C11.9094 149.733 25.6982 120.417 48.354 94H130C110.128 94 36.8657 223.847 25.882 245.49C23.1694 242.517 20.693 239.303 18.4782 235.852C7.32145 218.465 4.42529 197.567 8.61962 176.168Z" fill="#29387D"/>
</svg>
